<mxfile host="app.diagrams.net" modified="2021-06-23T04:52:01.797Z" agent="5.0 (Macintosh; Intel Mac OS X 10_15_7) AppleWebKit/537.36 (KHTML, like Gecko) Chrome/91.0.4472.101 Safari/537.36" etag="tozQx40WCAp3JbOrC4de" version="14.8.0" type="github">
  <diagram id="C5RBs43oDa-KdzZeNtuy" name="Page-1">
    <mxGraphModel dx="946" dy="567" grid="1" gridSize="10" guides="1" tooltips="1" connect="1" arrows="1" fold="1" page="1" pageScale="1" pageWidth="827" pageHeight="1169" math="0" shadow="0">
      <root>
        <mxCell id="WIyWlLk6GJQsqaUBKTNV-0" />
        <mxCell id="WIyWlLk6GJQsqaUBKTNV-1" parent="WIyWlLk6GJQsqaUBKTNV-0" />
        <mxCell id="fWxMh1mEJahFiTzCtL9i-4" value="" style="edgeStyle=orthogonalEdgeStyle;rounded=0;orthogonalLoop=1;jettySize=auto;html=1;exitX=0.467;exitY=1.033;exitDx=0;exitDy=0;exitPerimeter=0;" edge="1" parent="WIyWlLk6GJQsqaUBKTNV-1" source="fWxMh1mEJahFiTzCtL9i-0" target="fWxMh1mEJahFiTzCtL9i-3">
          <mxGeometry relative="1" as="geometry" />
        </mxCell>
        <mxCell id="fWxMh1mEJahFiTzCtL9i-7" style="edgeStyle=orthogonalEdgeStyle;rounded=0;orthogonalLoop=1;jettySize=auto;html=1;entryX=0.5;entryY=0;entryDx=0;entryDy=0;" edge="1" parent="WIyWlLk6GJQsqaUBKTNV-1" source="fWxMh1mEJahFiTzCtL9i-0" target="fWxMh1mEJahFiTzCtL9i-6">
          <mxGeometry relative="1" as="geometry" />
        </mxCell>
        <mxCell id="fWxMh1mEJahFiTzCtL9i-0" value="android 应用层java api, 全都放在androidx命名空间下" style="whiteSpace=wrap;html=1;" vertex="1" parent="WIyWlLk6GJQsqaUBKTNV-1">
          <mxGeometry x="220" y="40" width="300" height="60" as="geometry" />
        </mxCell>
        <mxCell id="fWxMh1mEJahFiTzCtL9i-3" value="安卓架构组件jetpack" style="whiteSpace=wrap;html=1;" vertex="1" parent="WIyWlLk6GJQsqaUBKTNV-1">
          <mxGeometry x="100" y="140" width="120" height="60" as="geometry" />
        </mxCell>
        <mxCell id="fWxMh1mEJahFiTzCtL9i-6" value="kotlin在安卓中的使用, 安卓为推广kotlin开发的ktx套件" style="whiteSpace=wrap;html=1;" vertex="1" parent="WIyWlLk6GJQsqaUBKTNV-1">
          <mxGeometry x="520" y="140" width="170" height="60" as="geometry" />
        </mxCell>
      </root>
    </mxGraphModel>
  </diagram>
</mxfile>
